<?xml version="1.0" standalone="no"?><!DOCTYPE svg PUBLIC "-//W3C//DTD SVG 1.1//EN" "http://www.w3.org/Graphics/SVG/1.1/DTD/svg11.dtd"><svg t="1693738979244" class="icon" viewBox="0 0 1024 1024" version="1.1" xmlns="http://www.w3.org/2000/svg" p-id="4131" xmlns:xlink="http://www.w3.org/1999/xlink" width="200" height="200"><path d="M426.64448 531.81952c36.1984 0 65.536 29.3376 65.536 65.536V733.184c0 81.43872-66.01728 147.456-147.456 147.456H290.816C209.37728 880.64 143.36 814.62272 143.36 733.184v-53.90848c0-81.43872 66.01728-147.456 147.456-147.456z m306.53952 0c81.43872 0 147.456 66.01728 147.456 147.456V733.184c0 81.43872-66.01728 147.456-147.456 147.456h-53.90848c-81.43872 0-147.456-66.01728-147.456-147.456v-135.82848c0-36.1984 29.3376-65.536 65.536-65.536H733.184zM344.72448 143.36c81.43872 0 147.456 66.01728 147.456 147.456v135.82848c0 36.1984-29.3376 65.536-65.536 65.536H290.816c-81.43872 0-147.456-66.01728-147.456-147.456V290.816C143.36 209.37728 209.37728 143.36 290.816 143.36h53.90848z m388.45952 0c81.43872 0 147.456 66.01728 147.456 147.456v53.90848c0 81.43872-66.01728 147.456-147.456 147.456h-135.82848c-36.1984 0-65.536-29.3376-65.536-65.536V290.816c0-81.43872 66.01728-147.456 147.456-147.456z" fill="#6464FF" p-id="4132"></path></svg>