<?xml version="1.0" standalone="no"?><!DOCTYPE svg PUBLIC "-//W3C//DTD SVG 1.1//EN" "http://www.w3.org/Graphics/SVG/1.1/DTD/svg11.dtd"><svg height="1024" node-id="1" sillyvg="true" template-height="1024" template-width="1024" version="1.1" viewBox="0 0 1024 1024" width="1024" xmlns="http://www.w3.org/2000/svg" xmlns:xlink="http://www.w3.org/1999/xlink"><defs node-id="64"><linearGradient gradientUnits="objectBoundingBox" id="linearGradient-1" node-id="5" spreadMethod="pad" x1="0.49614564" x2="0.5063883" y1="-0.16281228" y2="1.593112"><stop offset="0" stop-color="#f7caff" stop-opacity="0"></stop><stop offset="1" stop-color="#bcd8ff"></stop></linearGradient><linearGradient gradientUnits="objectBoundingBox" id="linearGradient-2" node-id="8" spreadMethod="pad" x1="0.88842696" x2="0.2384849" y1="0.44504625" y2="0.2258443"><stop offset="0" stop-color="#c6ddff"></stop><stop offset="1" stop-color="#ffffff"></stop></linearGradient><linearGradient gradientUnits="objectBoundingBox" id="linearGradient-3" node-id="11" spreadMethod="pad" x1="0.11157304" x2="0.7615151" y1="0.44504625" y2="0.2258443"><stop offset="0" stop-color="#c6ddff"></stop><stop offset="1" stop-color="#ffffff"></stop></linearGradient><linearGradient gradientUnits="objectBoundingBox" id="linearGradient-4" node-id="14" spreadMethod="pad" x1="0.5" x2="0.5" y1="-0.00000000000000003061617" y2="1"><stop offset="0" stop-color="#edf4ff"></stop><stop offset="1" stop-color="#abccff"></stop></linearGradient><linearGradient gradientUnits="objectBoundingBox" id="linearGradient-5" node-id="17" spreadMethod="pad" x1="0.5" x2="0.5" y1="-0.00000000000000003061617" y2="1"><stop offset="0" stop-color="#edf4ff"></stop><stop offset="1" stop-color="#abccff"></stop></linearGradient><linearGradient gradientUnits="objectBoundingBox" id="linearGradient-6" node-id="20" spreadMethod="pad" x1="0.5" x2="0.5" y1="-0.00000000000000003061617" y2="0.9977532"><stop offset="0" stop-color="#e795fa"></stop><stop offset="1" stop-color="#8dbaff"></stop></linearGradient><linearGradient gradientUnits="objectBoundingBox" id="linearGradient-7" node-id="23" spreadMethod="pad" x1="0.62823015" x2="-0.562374" y1="0.8656508" y2="0.31257695"><stop offset="0" stop-color="#ca8fe6"></stop><stop offset="1" stop-color="#7cb0ff"></stop></linearGradient><linearGradient gradientUnits="objectBoundingBox" id="linearGradient1" node-id="108" spreadMethod="pad" x1="-0.11458334" x2="1.4479165" y1="0.1875" y2="1.5416665"><stop offset="0" stop-color="#94bfff"></stop><stop offset="1" stop-color="#4c94fe"></stop></linearGradient><linearGradient gradientUnits="objectBoundingBox" id="linearGradient-8" node-id="26" spreadMethod="pad" x1="-0.11458334" x2="1.4479165" y1="0.1875" y2="1.5416665"><stop offset="0" stop-color="#94bfff"></stop><stop offset="1" stop-color="#4c94fe"></stop></linearGradient><linearGradient gradientUnits="objectBoundingBox" id="linearGradient-9" node-id="29" spreadMethod="pad" x1="0.5" x2="0.5" y1="0.00000000000000003061617" y2="1"><stop offset="0" stop-color="#70a8ff"></stop><stop offset="1" stop-color="#5597fd"></stop></linearGradient><linearGradient gradientUnits="objectBoundingBox" id="linearGradient-10" node-id="32" spreadMethod="pad" x1="0.5" x2="0.5" y1="0.00000000000000003061617" y2="1"><stop offset="0" stop-color="#70a8ff"></stop><stop offset="1" stop-color="#5597fd"></stop></linearGradient><linearGradient gradientUnits="objectBoundingBox" id="linearGradient2" node-id="133" spreadMethod="pad" x1="0.5" x2="0.5" y1="0.00000000000000003061617" y2="1"><stop offset="0" stop-color="#70a8ff"></stop><stop offset="1" stop-color="#5597fd"></stop></linearGradient><linearGradient gradientUnits="objectBoundingBox" id="linearGradient-11" node-id="35" spreadMethod="pad" x1="0.5" x2="0.5" y1="0.00000000000000003061617" y2="1"><stop offset="0" stop-color="#70a8ff"></stop><stop offset="1" stop-color="#5597fd"></stop></linearGradient></defs><g node-id="178"><path d="M 737.00 506.00 L 736.70 494.70 L 736.00 483.60 L 734.70 472.70 L 732.90 462.00 L 730.70 451.40 L 728.00 440.90 L 724.80 430.70 L 721.30 420.70 L 717.20 410.90 L 712.80 401.30 L 707.90 391.90 L 702.70 382.80 L 697.10 374.00 L 691.10 365.40 L 684.70 357.10 L 678.00 349.10 L 670.90 341.40 L 663.60 334.10 L 655.90 327.00 L 647.90 320.30 L 639.60 313.90 L 631.00 307.90 L 622.20 302.30 L 613.10 297.10 L 603.70 292.20 L 594.10 287.80 L 584.30 283.70 L 574.30 280.20 L 564.10 277.00 L 553.60 274.30 L 543.00 272.10 L 532.30 270.30 L 521.40 269.00 L 510.30 268.30 L 499.00 268.00 L 487.70 268.30 L 476.60 269.00 L 465.70 270.30 L 455.00 272.10 L 444.40 274.30 L 433.90 277.00 L 423.70 280.20 L 413.70 283.70 L 403.90 287.80 L 394.30 292.20 L 384.90 297.10 L 375.80 302.30 L 367.00 307.90 L 358.40 313.90 L 350.10 320.30 L 342.10 327.00 L 334.40 334.10 L 327.10 341.40 L 320.00 349.10 L 313.30 357.10 L 306.90 365.40 L 300.90 374.00 L 295.30 382.80 L 290.10 391.90 L 285.20 401.30 L 280.80 410.90 L 276.70 420.70 L 273.20 430.70 L 270.00 440.90 L 267.30 451.40 L 265.10 462.00 L 263.30 472.70 L 262.00 483.60 L 261.30 494.70 L 261.00 506.00 L 261.30 517.30 L 262.00 528.40 L 263.30 539.30 L 265.10 550.00 L 267.30 560.60 L 270.00 571.10 L 273.20 581.30 L 276.70 591.30 L 280.80 601.10 L 285.20 610.70 L 290.10 620.10 L 295.30 629.20 L 300.90 638.00 L 306.90 646.60 L 313.30 654.90 L 320.00 662.90 L 327.10 670.60 L 334.40 677.90 L 342.10 685.00 L 350.10 691.70 L 358.40 698.10 L 367.00 704.10 L 375.80 709.70 L 384.90 714.90 L 394.30 719.80 L 403.90 724.20 L 413.70 728.30 L 423.70 731.80 L 433.90 735.00 L 444.40 737.70 L 455.00 739.90 L 465.70 741.70 L 476.60 743.00 L 487.70 743.70 L 499.00 744.00 L 510.30 743.70 L 521.40 743.00 L 532.30 741.70 L 543.00 739.90 L 553.60 737.70 L 564.10 735.00 L 574.30 731.80 L 584.30 728.30 L 594.10 724.20 L 603.70 719.80 L 613.10 714.90 L 622.20 709.70 L 631.00 704.10 L 639.60 698.10 L 647.90 691.70 L 655.90 685.00 L 663.60 677.90 L 670.90 670.60 L 678.00 662.90 L 684.70 654.90 L 691.10 646.60 L 697.10 638.00 L 702.70 629.20 L 707.90 620.10 L 712.80 610.70 L 717.20 601.10 L 721.30 591.30 L 724.80 581.30 L 728.00 571.10 L 730.70 560.60 L 732.90 550.00 L 734.70 539.30 L 736.00 528.40 L 736.70 517.30 L 737.00 506.00 Z" fill="url(#linearGradient-1)" fill-rule="nonzero" group-id="1" id="路径" node-id="40" stroke="none" target-height="476" target-width="476" target-x="261" target-y="268"></path><path d="M 225.00 483.70 L 240.30 521.40 L 241.20 522.70 L 242.50 523.70 L 244.10 524.00 L 245.80 523.70 L 280.00 509.70 L 281.30 508.80 L 282.30 507.50 L 282.60 505.80 L 282.30 504.20 L 264.70 460.60 L 263.80 459.30 L 262.40 458.30 L 260.80 458.00 L 259.20 458.30 L 230.70 469.90 L 225.00 483.70 Z" fill="url(#linearGradient-2)" fill-rule="nonzero" group-id="1" id="路径" node-id="41" stroke="none" target-height="66" target-width="57.600006" target-x="225" target-y="458"></path><g node-id="179"><path d="M 761.00 510.90 L 733.70 578.30 L 732.10 580.70 L 729.70 582.40 L 726.80 583.00 L 723.90 582.40 L 662.70 557.50 L 660.30 555.90 L 658.60 553.40 L 658.00 550.50 L 658.60 547.60 L 690.10 469.70 L 691.70 467.30 L 694.20 465.60 L 697.00 465.00 L 699.90 465.60 L 750.80 486.30 L 761.00 510.90 Z" fill="url(#linearGradient-3)" fill-rule="nonzero" group-id="1,2" node-id="152" stroke="none" target-height="118" target-width="103" target-x="658" target-y="465"></path></g><path d="M 225.60 484.30 L 235.10 480.40 L 231.20 470.90 L 225.60 484.30 Z" fill="url(#linearGradient-4)" fill-rule="nonzero" group-id="1" id="路径" node-id="44" stroke="none" target-height="13.399994" target-width="9.5" target-x="225.6" target-y="470.9"></path><g node-id="180"><path d="M 761.00 510.00 L 744.00 503.10 L 750.90 486.00 L 761.00 510.00 Z" fill="url(#linearGradient-5)" fill-rule="nonzero" group-id="1,3" node-id="157" stroke="none" target-height="24" target-width="17" target-x="744" target-y="486"></path></g><g node-id="181"><path d="M 685.60 390.40 L 682.30 398.50 L 677.80 405.90 L 675.10 409.30 L 669.30 415.20 L 661.90 420.60 L 653.70 424.70 L 649.90 426.00 L 644.60 427.40 L 639.30 428.20 L 623.70 428.50 L 623.70 690.00 L 342.00 690.00 L 342.00 368.50 L 342.30 363.70 L 343.00 359.00 L 344.10 354.50 L 345.70 350.00 L 347.80 345.70 L 350.20 341.70 L 353.00 337.90 L 356.30 334.30 L 359.90 331.00 L 363.70 328.20 L 367.70 325.80 L 372.00 323.70 L 376.40 322.10 L 381.00 321.00 L 385.70 320.30 L 390.50 320.00 L 633.70 320.00 L 638.80 320.20 L 643.70 320.90 L 648.60 322.10 L 656.10 324.80 L 661.00 327.40 L 666.10 330.80 L 672.00 335.90 L 675.50 339.70 L 678.60 343.90 L 681.30 348.40 L 683.60 353.10 L 685.40 358.10 L 687.20 366.00 L 688.00 374.20 L 687.70 379.70 L 686.90 385.10 L 685.60 390.40 Z" fill="url(#linearGradient-6)" fill-rule="nonzero" group-id="1,4" id="路径" node-id="48" stroke="none" target-height="370" target-width="346" target-x="342" target-y="320"></path><path d="M 687.00 374.60 L 686.70 380.10 L 685.90 385.50 L 684.50 390.80 L 682.70 395.80 L 680.40 400.50 L 677.60 405.00 L 674.50 409.20 L 668.10 415.70 L 660.60 421.10 L 655.90 423.60 L 648.50 426.60 L 643.20 427.90 L 637.70 428.70 L 622.00 429.00 L 622.00 368.90 L 622.30 364.10 L 623.00 359.40 L 624.10 354.80 L 625.70 350.40 L 627.80 346.10 L 630.30 341.90 L 633.20 338.10 L 636.40 334.60 L 639.90 331.40 L 643.70 328.50 L 647.80 326.10 L 652.20 324.00 L 659.80 327.70 L 665.00 331.10 L 668.10 333.50 L 674.50 340.10 L 677.60 344.20 L 680.40 348.70 L 682.70 353.50 L 684.50 358.40 L 686.40 366.30 L 687.00 374.60 Z" fill="url(#linearGradient-7)" fill-rule="nonzero" group-id="1,4" id="路径" node-id="49" stroke="none" target-height="105" target-width="65" target-x="622" target-y="324"></path><path d="M 567.60 596.00 L 388.40 596.00 L 386.90 596.20 L 384.60 597.30 L 383.70 598.20 L 383.00 600.50 L 383.70 602.80 L 384.60 603.70 L 386.90 604.80 L 388.40 605.00 L 567.60 605.00 L 569.10 604.80 L 571.40 603.70 L 572.30 602.80 L 573.00 600.50 L 572.30 598.20 L 571.40 597.30 L 569.10 596.20 L 567.60 596.00 Z" fill="#f1f7ff" fill-rule="nonzero" group-id="1,4" id="路径" node-id="50" stroke="none" target-height="9" target-width="190" target-x="383" target-y="596"></path><path d="M 567.60 540.00 L 388.40 540.00 L 386.90 540.20 L 384.60 541.30 L 383.70 542.20 L 383.00 544.50 L 383.70 546.80 L 384.60 547.70 L 386.90 548.80 L 388.40 549.00 L 567.60 549.00 L 569.10 548.80 L 571.40 547.70 L 572.30 546.80 L 573.00 544.50 L 572.30 542.20 L 571.40 541.30 L 569.10 540.20 L 567.60 540.00 Z" fill="#f1f7ff" fill-rule="nonzero" group-id="1,4" id="路径" node-id="51" stroke="none" target-height="9" target-width="190" target-x="383" target-y="540"></path><path d="M 567.60 485.00 L 452.40 485.00 L 449.70 485.60 L 447.70 487.20 L 447.20 488.30 L 447.00 489.50 L 447.70 491.80 L 449.70 493.40 L 450.90 493.80 L 567.60 494.00 L 569.10 493.80 L 571.40 492.70 L 572.30 491.80 L 573.00 489.50 L 572.30 487.20 L 571.40 486.30 L 569.10 485.20 L 567.60 485.00 Z" fill="#f1f7ff" fill-rule="nonzero" group-id="1,4" id="路径" node-id="52" stroke="none" target-height="9" target-width="126" target-x="447" target-y="485"></path><path d="M 489.90 429.00 L 387.10 429.00 L 385.50 429.30 L 384.20 430.00 L 383.30 431.10 L 383.00 432.50 L 383.30 435.90 L 384.20 437.00 L 385.50 437.70 L 387.10 438.00 L 489.90 438.00 L 491.50 437.70 L 492.80 437.00 L 493.70 435.90 L 494.00 434.50 L 493.70 431.10 L 492.80 430.00 L 491.50 429.30 L 489.90 429.00 Z" fill="#f1f7ff" fill-rule="nonzero" group-id="1,4" id="路径" node-id="53" stroke="none" target-height="9" target-width="111" target-x="383" target-y="429"></path><path d="M 424.80 485.00 L 386.80 485.20 L 385.50 485.60 L 383.70 487.20 L 383.00 489.50 L 383.70 491.80 L 385.50 493.40 L 386.80 493.80 L 426.20 493.80 L 427.50 493.40 L 429.30 491.80 L 430.00 489.50 L 429.30 487.20 L 428.50 486.30 L 426.20 485.20 L 424.80 485.00 Z" fill="#f1f7ff" fill-rule="nonzero" group-id="1,4" id="路径" node-id="54" stroke="none" target-height="8.799988" target-width="47" target-x="383" target-y="485"></path></g><path d="M 593.00 297.00 L 595.40 296.80 L 597.50 296.20 L 601.40 293.90 L 604.20 290.60 L 605.20 288.50 L 605.80 286.40 L 606.00 284.00 L 605.20 279.50 L 602.90 275.60 L 599.60 272.80 L 597.50 271.80 L 595.40 271.20 L 593.00 271.00 L 590.60 271.20 L 588.50 271.80 L 584.60 274.10 L 581.80 277.40 L 580.80 279.50 L 580.20 281.60 L 580.00 284.00 L 580.20 286.40 L 580.80 288.50 L 581.80 290.60 L 584.60 293.90 L 588.50 296.20 L 590.60 296.80 L 593.00 297.00 Z M 598.30 278.70 L 599.50 280.30 L 600.20 282.00 L 600.40 284.00 L 600.20 286.00 L 599.50 287.70 L 598.30 289.30 L 596.70 290.50 L 595.00 291.20 L 593.00 291.40 L 591.00 291.20 L 589.30 290.50 L 587.70 289.30 L 586.50 287.70 L 585.80 286.00 L 585.60 284.00 L 585.80 282.00 L 586.50 280.30 L 587.70 278.70 L 589.30 277.50 L 591.00 276.80 L 593.00 276.60 L 595.00 276.80 L 596.70 277.50 L 598.30 278.70 Z" fill="url(#linearGradient1)" fill-rule="evenodd" group-id="1" id="形状" node-id="55" stroke="none" target-height="26" target-width="26" target-x="580" target-y="271"></path><path d="M 603.00 732.00 L 602.40 735.50 L 600.60 738.50 L 598.00 740.60 L 596.50 741.40 L 593.00 742.00 L 589.50 741.40 L 586.50 739.60 L 584.40 737.00 L 583.20 733.80 L 583.20 730.20 L 583.60 728.50 L 585.40 725.50 L 588.00 723.40 L 589.50 722.60 L 593.00 722.00 L 596.50 722.60 L 599.50 724.40 L 601.60 727.00 L 602.40 728.50 L 603.00 732.00 Z" fill="none" group-id="1" id="椭圆形" node-id="56" stroke="url(#linearGradient-8)" stroke-linecap="butt" stroke-width="2.6127594" target-height="20" target-width="19.799988" target-x="583.2" target-y="722"></path><g node-id="182"><path d="M 258.60 602.80 L 260.00 602.80 L 261.10 603.20 L 262.00 604.00 L 262.60 605.10 L 262.80 606.30 L 262.60 607.60 L 255.90 625.20 L 255.20 626.30 L 254.20 627.10 L 253.10 627.50 L 251.80 627.50 L 250.70 627.10 L 249.70 626.20 L 237.80 611.60 L 237.20 610.40 L 237.00 609.20 L 237.20 608.00 L 237.80 607.00 L 238.80 606.20 L 240.00 605.70 L 258.60 602.80 Z" fill="url(#linearGradient-9)" fill-rule="nonzero" group-id="1,5" node-id="172" stroke="none" target-height="24.700012" target-width="25.799988" target-x="237" target-y="602.8"></path></g><g node-id="183"><path d="M 695.90 641.70 L 695.80 640.40 L 696.10 639.20 L 696.90 638.20 L 697.90 637.50 L 699.00 637.20 L 700.40 637.30 L 718.50 642.40 L 719.70 643.00 L 720.50 643.90 L 721.00 645.00 L 721.10 646.20 L 720.80 647.40 L 720.00 648.50 L 706.60 661.70 L 705.50 662.40 L 704.30 662.70 L 703.10 662.50 L 702.00 662.00 L 701.10 661.20 L 700.50 660.00 L 695.90 641.70 Z" fill="url(#linearGradient-10)" fill-rule="nonzero" group-id="1,6" node-id="176" stroke="none" target-height="25.5" target-width="25.299988" target-x="695.8" target-y="637.2"></path></g><path d="M 465.80 213.30 L 466.40 211.90 L 468.20 210.40 L 470.60 210.00 L 472.80 211.00 L 474.20 213.30 L 477.80 228.10 L 478.90 230.10 L 480.90 231.20 L 495.70 234.80 L 497.10 235.40 L 498.00 236.20 L 498.60 237.20 L 499.00 239.60 L 498.00 241.80 L 495.70 243.20 L 480.90 246.80 L 478.90 247.90 L 477.80 249.90 L 474.20 264.70 L 473.60 266.10 L 472.80 267.00 L 470.60 268.00 L 468.20 267.60 L 467.20 267.00 L 465.80 264.70 L 462.20 249.90 L 461.10 247.90 L 459.10 246.80 L 444.30 243.20 L 442.00 241.80 L 441.00 239.60 L 441.40 237.20 L 442.90 235.40 L 444.30 234.80 L 459.10 231.20 L 461.10 230.10 L 462.20 228.10 L 465.80 213.30 Z" fill="url(#linearGradient2)" fill-rule="nonzero" group-id="1" id="路径" node-id="61" stroke="none" target-height="58" target-width="58" target-x="441" target-y="210"></path><path d="M 366.80 716.30 L 367.40 714.90 L 368.20 714.00 L 369.20 713.40 L 371.60 713.00 L 373.80 714.00 L 375.20 716.30 L 378.80 731.10 L 379.90 733.10 L 381.90 734.20 L 396.70 737.80 L 398.10 738.40 L 399.00 739.20 L 399.60 740.20 L 400.00 742.60 L 399.00 744.80 L 396.70 746.20 L 381.90 749.80 L 379.90 750.90 L 378.80 752.90 L 375.20 767.70 L 374.60 769.10 L 373.80 770.00 L 371.60 771.00 L 369.20 770.60 L 368.20 770.00 L 367.40 769.10 L 366.80 767.70 L 363.20 752.90 L 362.10 750.90 L 360.10 749.80 L 345.30 746.20 L 343.90 745.60 L 343.00 744.80 L 342.00 742.60 L 342.40 740.20 L 343.90 738.40 L 345.30 737.80 L 360.10 734.20 L 362.10 733.10 L 363.20 731.10 L 366.80 716.30 Z" fill="url(#linearGradient-11)" fill-rule="nonzero" group-id="1" id="路径" node-id="62" stroke="none" target-height="58" target-width="58" target-x="342" target-y="713"></path></g></svg>