<?xml version="1.0" standalone="no"?><!DOCTYPE svg PUBLIC "-//W3C//DTD SVG 1.1//EN" "http://www.w3.org/Graphics/SVG/1.1/DTD/svg11.dtd"><svg t="1714145243900" class="icon" viewBox="0 0 1616 1024" version="1.1" xmlns="http://www.w3.org/2000/svg" p-id="4522" xmlns:xlink="http://www.w3.org/1999/xlink" width="202" height="128"><path d="M1092.446316 347.890526a29.642105 29.642105 0 0 1-10.778948 40.690527l-77.608421 44.732631a29.642105 29.642105 0 0 1-29.911579-51.469473L1050.947368 336.842105a29.911579 29.911579 0 0 1 40.690527 11.048421z" fill="#6001fd" p-id="4523"></path><path d="M1136.64 512a29.911579 29.911579 0 0 1-29.911579 29.911579h-89.465263a29.911579 29.911579 0 1 1 0-59.553684h90.00421a29.911579 29.911579 0 0 1 29.372632 29.642105z" fill="#6001fd" opacity=".9" p-id="4524"></path><path d="M1092.715789 675.84a29.911579 29.911579 0 0 1-40.690526 11.048421l-77.608421-44.732632a29.911579 29.911579 0 0 1 29.642105-51.738947l77.608421 44.732632a29.911579 29.911579 0 0 1 11.048421 40.690526z" fill="#6001fd" opacity=".8" p-id="4525"></path><path d="M972.530526 796.025263a29.642105 29.642105 0 0 1-40.690526-10.778947l-44.732632-77.608421a29.642105 29.642105 0 0 1 51.469474-29.911579L983.578947 754.526316a29.911579 29.911579 0 0 1-11.048421 40.690526z" fill="#6001fd" opacity=".7" p-id="4526"></path><path d="M808.421053 840.218947a29.911579 29.911579 0 0 1-29.911579-29.911579v-89.465263a29.911579 29.911579 0 1 1 59.553684 0v90.004211a29.911579 29.911579 0 0 1-29.642105 29.372631z" fill="#6001fd" opacity=".6" p-id="4527"></path><path d="M644.581053 796.294737a29.911579 29.911579 0 0 1-11.048421-41.768421l44.732631-77.608421a29.911579 29.911579 0 0 1 51.738948 29.642105l-44.732632 77.608421a29.911579 29.911579 0 0 1-40.690526 12.126316z" fill="#6001fd" opacity=".5" p-id="4528"></path><path d="M524.395789 676.109474a29.642105 29.642105 0 0 1 10.778948-40.690527l77.608421-44.732631a29.642105 29.642105 0 0 1 40.690526 10.778947 29.911579 29.911579 0 0 1-10.778947 40.96L565.894737 687.157895a29.911579 29.911579 0 0 1-40.690526-11.048421z" fill="#6001fd" opacity=".4" p-id="4529"></path><path d="M480.202105 512a29.911579 29.911579 0 0 1 29.911579-29.911579h89.465263a29.911579 29.911579 0 1 1 0 59.553684h-89.465263a29.911579 29.911579 0 0 1-29.911579-29.642105z" fill="#6001fd" opacity=".3" p-id="4530"></path><path d="M524.126316 348.16a29.911579 29.911579 0 0 1 41.768421-11.048421l77.608421 44.732632a29.911579 29.911579 0 0 1-29.642105 51.738947l-77.608421-44.732632a29.911579 29.911579 0 0 1-12.126316-40.690526z" fill="#6001fd" opacity=".2" p-id="4531"></path><path d="M644.311579 227.974737a29.642105 29.642105 0 0 1 40.690526 10.778947l44.732632 77.608421a29.642105 29.642105 0 0 1-10.778948 40.690527 29.911579 29.911579 0 0 1-40.96-10.778948L633.263158 269.473684a29.911579 29.911579 0 0 1 11.048421-40.690526z" fill="#6001fd" opacity=".1" p-id="4532"></path><path d="M808.421053 183.781053a29.911579 29.911579 0 0 1 29.642105 29.911579v89.465263a29.911579 29.911579 0 1 1-59.553684 0V213.692632A29.911579 29.911579 0 0 1 808.421053 183.781053zM972.261053 227.705263a29.911579 29.911579 0 0 1 11.048421 41.768421l-44.732632 77.608421a29.911579 29.911579 0 0 1-51.738947-29.642105l44.732631-77.608421a29.911579 29.911579 0 0 1 40.690527-12.126316z" fill="#6001fd" p-id="4533"></path></svg>