<?xml version="1.0" standalone="no"?><!DOCTYPE svg PUBLIC "-//W3C//DTD SVG 1.1//EN" "http://www.w3.org/Graphics/SVG/1.1/DTD/svg11.dtd"><svg t="1710070728246" class="icon" viewBox="0 0 1024 1024" version="1.1" xmlns="http://www.w3.org/2000/svg" p-id="5180" xmlns:xlink="http://www.w3.org/1999/xlink" width="128" height="128"><path d="M344.7 599.3h-37.2c-5.1 0-9.3 4.2-9.3 9.3 0 5.1 4.2 9.3 9.3 9.3h37.2c5.1 0 9.3-4.2 9.3-9.3 0-5.2-4.1-9.3-9.3-9.3zM344.7 556.6h-37.2c-5.1 0-9.3 4.2-9.3 9.3 0 5.1 4.2 9.3 9.3 9.3h37.2c5.1 0 9.3-4.2 9.3-9.3 0-5.1-4.1-9.3-9.3-9.3zM344.7 641.9h-37.2c-5.1 0-9.3 4.2-9.3 9.3 0 5.1 4.2 9.3 9.3 9.3h37.2c5.1 0 9.3-4.2 9.3-9.3 0-5.1-4.1-9.3-9.3-9.3zM344.7 769.3h-37.2c-5.1 0-9.3 4.2-9.3 9.3 0 5.1 4.2 9.3 9.3 9.3h37.2c5.1 0 9.3-4.2 9.3-9.3 0-5.1-4.1-9.3-9.3-9.3zM344.7 726.7h-37.2c-5.1 0-9.3 4.2-9.3 9.3 0 5.1 4.2 9.3 9.3 9.3h37.2c5.1 0 9.3-4.2 9.3-9.3 0-5.2-4.1-9.3-9.3-9.3zM428.4 769.3h-37.2c-5.1 0-9.3 4.2-9.3 9.3 0 5.1 4.2 9.3 9.3 9.3h37.2c5.1 0 9.3-4.2 9.3-9.3 0-5.1-4.1-9.3-9.3-9.3zM428.4 556.6h-37.2c-5.1 0-9.3 4.2-9.3 9.3 0 5.1 4.2 9.3 9.3 9.3h37.2c5.1 0 9.3-4.2 9.3-9.3 0-5.1-4.1-9.3-9.3-9.3z" p-id="5181" fill="#8a8a8a"></path><path d="M530.4 666.9m-18.6 0a18.6 18.6 0 1 0 37.2 0 18.6 18.6 0 1 0-37.2 0Z" p-id="5182" fill="#8a8a8a"></path><path d="M428.4 599.3h-37.2c-5.1 0-9.3 4.2-9.3 9.3 0 5.1 4.2 9.3 9.3 9.3h37.2c5.1 0 9.3-4.2 9.3-9.3 0-5.2-4.1-9.3-9.3-9.3zM428.4 641.9h-37.2c-5.1 0-9.3 4.2-9.3 9.3 0 5.1 4.2 9.3 9.3 9.3h37.2c5.1 0 9.3-4.2 9.3-9.3 0-5.1-4.1-9.3-9.3-9.3zM428.4 726.7h-37.2c-5.1 0-9.3 4.2-9.3 9.3 0 5.1 4.2 9.3 9.3 9.3h37.2c5.1 0 9.3-4.2 9.3-9.3 0-5.2-4.1-9.3-9.3-9.3zM916.3 288h-89.6v627.2c0 16.4-4.7 31.6-12.5 44.8h102.1c24.7 0 44.8-20.1 44.8-44.8V332.8c0-24.7-20-44.8-44.8-44.8z" p-id="5183" fill="#8a8a8a"></path><path d="M734.9 64H107.7C83 64 62.9 84.1 62.9 108.8v806.4c0 24.7 20.1 44.8 44.8 44.8h627.2c24.7 0 44.8-20.1 44.8-44.8V108.8c0-24.7-20.1-44.8-44.8-44.8zM588.7 880.7H253.8c-10.3 0-18.6-8.3-18.6-18.6s8.3-18.6 18.6-18.6H275V527.2c0-10.3 8.3-18.6 18.6-18.6h148.8c10.3 0 18.6 8.3 18.6 18.6v62.3l99.2 49.1c4.6 3.5 7.4 9 7.4 14.9v190h21.1c10.3 0 18.6 8.3 18.6 18.6s-8.3 18.6-18.6 18.6z m91.4-423.8H166.9c-12.9 0-23.4-10-23.4-22.4 0-12.4 10.5-22.4 23.4-22.4h513.2c12.9 0 23.4 10 23.4 22.4 0 12.4-10.5 22.4-23.4 22.4z m-431.7-180v-44.1h30.5V366h-32.6l-32.9-64.3-13.1-29.2h-0.9c1.4 14.9 4.1 33.1 4.1 49.3V366H173V232.8h32.6l33.1 63.7 13.1 29.6h0.9c-1.8-14.1-4.3-33.3-4.3-49.2z m138.2 7.1v26.9H342v28.3h54.4V366h-86.5V232.8h84.5v26.5H342V284h44.6z m23.3-51.2h32.8l8.4 60.7 5.4 42.3h0.7c2.5-14.2 5.2-28.5 7.9-42.3l13.6-60.7h26.9l14 60.7c2.7 13.6 5 28 7.7 42.3h0.9c1.6-14.3 3.4-28.5 5-42.3l8.6-60.7h30.4L549.1 366h-40.3l-12-58c-2.1-10.2-3.9-20.9-5.2-31h-0.9c-1.6 10-3.2 20.8-5.2 31l-11.6 58h-39.6l-24.4-133.2zM631 314.3l-17-7.2c-14-5.6-27-17.2-27-36.6 0-22.4 20.1-40.3 48.3-40.3 15.4 0 31.7 5.9 43.4 17.5l-15.9 20.1c-8.8-6.6-17-10.2-27.4-10.2-9.8 0-15.9 3.9-15.9 11.1 0 7.3 8.4 10.2 20.2 14.9l16.6 6.6c16.5 6.6 26.3 17.7 26.3 36.5 0 22.2-18.6 41.7-50.9 41.7-17.4 0-36-6.5-49.8-19.2l18.1-22c9.5 8 21.9 13.6 32.4 13.6 11.8 0 17.4-4.5 17.4-11.6 0-7.6-7.3-10.1-18.8-14.9z m49.1-126.1H166.9c-12.9 0-23.4-10-23.4-22.4 0-12.4 10.5-22.4 23.4-22.4h513.2c12.9 0 23.4 10 23.4 22.4 0 12.3-10.5 22.4-23.4 22.4z" p-id="5184" fill="#8a8a8a"></path></svg>